<svg width="99" height="32" viewBox="0 0 99 32" fill="none" xmlns="http://www.w3.org/2000/svg">
<path d="M10.7893 26.4265C9.54973 26.4265 8.38102 26.2052 7.28309 25.7624C6.20289 25.302 5.26435 24.6557 4.46748 23.8234C3.68831 22.9911 3.10394 22.0083 2.71436 20.8749L6.08778 19.3609C6.58361 20.4411 7.26538 21.2911 8.13309 21.9109C9.01853 22.5307 9.99248 22.8406 11.0549 22.8406C11.6216 22.8406 12.1086 22.752 12.5159 22.5749C12.9232 22.3979 13.242 22.1588 13.4722 21.8578C13.7024 21.539 13.8174 21.1671 13.8174 20.7421C13.8174 20.2817 13.6757 19.8921 13.3924 19.5734C13.1091 19.2369 12.6664 18.9713 12.0644 18.7766L8.18621 17.5015C6.61018 16.988 5.42372 16.2619 4.62685 15.3234C3.82998 14.3671 3.43154 13.225 3.43154 11.8969C3.43154 10.7281 3.71487 9.70103 4.28154 8.81559C4.86591 7.93021 5.67164 7.23959 6.69871 6.74375C7.7435 6.24792 8.93878 6 10.2846 6C11.4711 6 12.569 6.20365 13.5784 6.61094C14.5877 7.01821 15.4555 7.59377 16.1815 8.33751C16.9252 9.08125 17.483 9.97553 17.8549 11.0203L14.5081 12.5344C14.1362 11.6135 13.5784 10.8964 12.8347 10.3828C12.0909 9.85156 11.2409 9.58596 10.2846 9.58596C9.73571 9.58596 9.24874 9.67447 8.82371 9.85156C8.39869 10.0286 8.0711 10.2854 7.8409 10.6219C7.61069 10.9406 7.49559 11.3125 7.49559 11.7375C7.49559 12.1979 7.64611 12.6052 7.94715 12.9593C8.24816 13.2958 8.69974 13.5614 9.30186 13.7562L13.1003 14.9781C14.694 15.4916 15.8805 16.2088 16.6596 17.1296C17.4565 18.0505 17.8549 19.1749 17.8549 20.5031C17.8549 21.6541 17.5539 22.6812 16.9518 23.5843C16.3497 24.4697 15.5174 25.1692 14.4549 25.6827C13.4101 26.1786 12.1883 26.4265 10.7893 26.4265Z" fill="#CBCBCB"/>
<path d="M20.7891 26.1078V6.31885H24.9062V26.1078H20.7891Z" fill="#CBCBCB"/>
<path d="M28.4153 26.1078V6.31885H32.5325V22.5219H49.8996V26.1078H28.4153Z" fill="#CBCBCB"/>
<path d="M55.2644 13.5735C55.2644 14.813 55.043 16.9818 54.6003 18.0797C54.1399 19.1599 53.4935 20.0985 52.6613 20.8953C51.829 21.6745 50.8462 22.2589 49.7128 22.6484L48.1988 19.275C49.279 18.7792 50.129 18.0974 50.7488 17.2297C51.3686 16.3443 51.6784 14.3704 51.6784 13.3078C51.6784 12.7412 51.5899 12.2542 51.4128 11.8469C51.2358 11.4396 50.9967 11.1209 50.6957 10.8907C50.3769 10.6605 50.005 10.5454 49.58 10.5454C49.1196 10.5454 48.73 10.687 48.4113 10.9704C48.0748 11.2537 47.8092 11.6964 47.6144 12.2985L46.3394 16.1766C45.8259 17.7526 45.0998 18.9391 44.1613 19.736C43.205 20.5329 42.0629 20.9313 40.7348 20.9313C39.566 20.9313 38.5389 20.6479 37.6535 20.0813C36.7681 19.4969 36.0775 18.6912 35.5816 17.6641C35.0858 16.6193 34.8379 15.424 34.8379 14.0782C34.8379 12.8917 35.0415 11.7938 35.4488 10.7844C35.8561 9.77503 36.4317 8.90732 37.1754 8.1813C37.9191 7.43756 38.8134 6.87973 39.8582 6.50789L41.3723 9.85477C40.4514 10.2266 39.7342 10.7844 39.2207 11.5282C38.6894 12.2719 38.4238 13.1219 38.4238 14.0782C38.4238 14.6271 38.5124 15.1141 38.6894 15.5391C38.8665 15.9641 39.1233 16.2917 39.4598 16.5219C39.7785 16.7521 40.1504 16.8672 40.5754 16.8672C41.0358 16.8672 41.443 16.7167 41.7972 16.4157C42.1337 16.1146 42.3993 15.663 42.5941 15.061L43.816 11.2626C44.3295 9.66879 45.0467 8.48236 45.9675 7.70316C46.8884 6.9063 48.0128 6.50789 49.341 6.50789C50.492 6.50789 51.5191 6.80895 52.4222 7.411C53.3076 8.01311 54.0071 8.84537 54.5206 9.90789C55.0165 10.9526 55.2644 12.1745 55.2644 13.5735Z" fill="#CBCBCB"/>
<path d="M57.1396 26.1078V6.31885H61.2568V26.1078H57.1396Z" fill="#CBCBCB"/>
<path d="M63.8379 26.2968V6.50781H67.955V22.7109H76.3224V26.2968H63.8379Z" fill="#CBCBCB"/>
<path d="M77.8315 26.1078L84.5253 6.31885H89.9967L96.6904 26.1078H92.2015L90.8735 22.0703H83.6216L82.2936 26.1078H77.8315ZM84.764 18.4844H89.7311L86.7032 9.13447H87.8187L84.764 18.4844Z" fill="#CBCBCB"/>
</svg>
